<?xml version="1.0" standalone="no"?>
<!DOCTYPE svg PUBLIC "-//W3C//DTD SVG 20010904//EN"
 "http://www.w3.org/TR/2001/REC-SVG-20010904/DTD/svg10.dtd">
<svg version="1.0" xmlns="http://www.w3.org/2000/svg"
 width="1322.000000pt" height="1238.000000pt" viewBox="0 0 1322.000000 1238.000000"
 preserveAspectRatio="xMidYMid meet">

<g transform="translate(0.000000,1238.000000) scale(0.100000,-0.100000)"
fill="#000000" stroke="none">
<path d="M9199 9973 c-13 -16 -12 -17 4 -4 16 13 21 21 13 21 -2 0 -10 -8 -17
-17z"/>
<path d="M9159 9933 c-13 -16 -12 -17 4 -4 9 7 17 15 17 17 0 8 -8 3 -21 -13z"/>
<path d="M3780 9892 c0 -10 -4 -22 -9 -27 -20 -22 -61 -245 -61 -333 l0 -52
2323 3 2322 3 100 22 c163 38 326 108 467 203 81 55 150 117 135 122 -6 2 -28
-13 -47 -35 -31 -34 -37 -36 -53 -24 -15 12 -16 14 -2 20 10 3 15 0 15 -11 0
-14 2 -14 14 3 8 10 11 20 6 22 -5 2 -7 9 -4 15 3 9 -153 12 -663 11 -368 0
-675 -3 -683 -6 -36 -14 -46 -15 -70 -5 -33 13 -2216 17 -2247 4 -12 -5 -30
-6 -40 -2 -24 11 -843 13 -843 3 0 -11 -77 -10 -84 0 -3 5 -122 8 -265 7 -244
-1 -261 0 -261 17 0 10 -4 18 -9 18 -4 0 -6 -10 -4 -22 2 -13 -1 -29 -6 -37
-12 -18 -41 -7 -41 16 0 12 3 14 8 6 4 -6 8 9 9 33 1 24 0 44 -3 44 -2 0 -4
-8 -4 -18z m-23 -134 c-3 -8 -6 -5 -6 6 -1 11 2 17 5 13 3 -3 4 -12 1 -19z"/>
<path d="M9126 9895 c-11 -8 -15 -15 -9 -15 6 0 16 7 23 15 16 19 11 19 -14 0z"/>
<path d="M9051 9864 c0 -11 3 -14 6 -6 3 7 2 16 -1 19 -3 4 -6 -2 -5 -13z"/>
<path d="M9083 9874 c4 -4 2 -13 -4 -21 -7 -8 -8 -13 -1 -13 5 0 15 6 21 14 9
11 8 15 -6 20 -10 4 -14 4 -10 0z"/>
<path d="M9000 9826 c0 -9 5 -16 10 -16 6 0 10 4 10 9 0 6 -4 13 -10 16 -5 3
-10 -1 -10 -9z"/>
<path d="M4767 7410 c-4 -30 -7 -307 -7 -615 l0 -560 997 3 c1933 4 2025 6
2135 30 264 60 506 186 681 355 40 40 62 62 47 50 -14 -13 -31 -23 -37 -23 -7
0 -15 -10 -18 -21 -5 -15 -9 -18 -15 -9 -4 6 -18 11 -31 10 -13 -1 -629 -3
-1369 -5 -934 -3 -1371 -1 -1430 6 -47 6 -104 13 -126 14 -61 4 -105 15 -134
34 -24 16 -24 16 30 22 53 6 53 6 -22 7 -85 2 -108 8 -108 27 0 7 -7 15 -15
19 -11 4 -13 14 -8 37 4 23 3 30 -5 25 -7 -4 -12 -14 -12 -22 0 -27 -22 -9
-34 26 -6 19 -18 35 -26 35 -26 1 -61 31 -55 48 6 15 -29 57 -48 57 -5 0 -7 9
-4 19 5 19 -19 53 -45 65 -10 5 -10 7 0 12 19 9 14 21 -13 28 -16 4 -22 11
-19 20 3 9 -3 20 -15 28 -12 7 -21 21 -21 30 0 10 -4 18 -9 18 -5 0 -12 14
-16 31 -4 17 -18 40 -31 52 -13 11 -24 26 -24 32 0 11 -35 45 -48 45 -4 0 -13
13 -20 29 -7 16 -22 31 -32 34 -11 3 -20 12 -20 20 0 17 -34 32 -49 23 -5 -4
-11 0 -13 6 -3 7 -8 -12 -11 -42z m3759 -818 c-13 -13 -18 -14 -28 -3 -11 10
-10 11 5 6 12 -5 17 -2 17 10 0 9 5 13 11 9 7 -4 6 -11 -5 -22z"/>
<path d="M8575 6680 c-3 -5 -1 -10 4 -10 6 0 11 5 11 10 0 6 -2 10 -4 10 -3 0
-8 -4 -11 -10z"/>
<path d="M3463 5080 c0 -36 2 -50 4 -32 2 17 2 47 0 65 -2 17 -4 3 -4 -33z"/>
<path d="M3462 4589 c-1 -257 2 -438 9 -475 62 -354 319 -632 672 -727 l82
-22 2768 -2 c1522 -2 2767 0 2767 4 -1 34 -176 310 -268 423 -161 198 -459
466 -494 444 -6 -4 -8 -3 -5 3 9 14 -125 100 -258 169 -140 71 -415 176 -415
157 0 -3 -6 -1 -12 5 -17 14 -246 64 -267 59 -10 -3 -8 -5 8 -6 15 -1 21 -6
18 -15 -4 -9 3 -16 18 -18 18 -4 22 -1 17 11 -5 14 -3 14 11 2 9 -7 26 -11 37
-8 24 6 90 -12 90 -25 0 -5 -10 -6 -22 -2 -30 10 -218 11 -218 2 0 -5 -578 -8
-1285 -8 -850 0 -1285 -3 -1285 -10 0 -5 -16 -10 -36 -10 -22 0 -33 4 -29 10
5 7 -46 10 -154 9 -94 0 -159 -5 -155 -10 3 -5 -7 -9 -23 -8 -25 0 -26 1 -8 9
17 7 15 9 -12 9 -17 1 -34 -5 -37 -11 -5 -10 -7 -10 -12 0 -7 14 -64 17 -64 2
0 -5 -9 -10 -20 -10 -11 0 -20 5 -20 10 0 7 -230 10 -670 10 l-670 0 -2 23
c-1 12 -4 -5 -8 -38 l-7 -60 -2 75 c-3 69 -4 72 -12 35 -4 -22 -9 -80 -11
-130 -1 -49 -5 52 -8 225 l-5 315 -3 -416z m4745 -42 c4 -7 0 -8 -11 -4 -10 4
-22 7 -27 7 -5 0 -9 4 -9 9 0 12 38 2 47 -12z m109 -14 c-6 -16 21 -32 44 -26
10 3 20 -2 23 -11 6 -16 -4 -22 -16 -10 -3 3 -27 8 -53 10 -48 4 -74 17 -74
39 0 7 11 11 28 9 15 -2 19 -1 10 2 -10 3 -18 9 -18 14 0 4 14 3 30 -3 17 -7
28 -17 26 -24z m-246 17 c0 -6 9 -6 26 0 32 12 41 13 29 1 -18 -17 -110 -18
-100 -1 8 13 45 13 45 0z m290 -4 c0 -11 -19 -15 -25 -6 -3 5 1 10 9 10 9 0
16 -2 16 -4z m60 -31 c-7 -8 -17 -15 -22 -15 -6 0 -5 7 2 15 7 8 17 15 22 15
6 0 5 -7 -2 -15z m35 -15 c-19 -8 -19 -9 -1 -9 11 -1 17 -4 13 -7 -9 -9 -48 6
-42 17 4 5 16 9 28 8 21 0 21 -1 2 -9z m50 -10 c3 -5 -1 -10 -9 -10 -9 0 -16
5 -16 10 0 6 4 10 9 10 6 0 13 -4 16 -10z m180 -100 c-3 -5 -12 -10 -18 -10
-7 0 -6 4 3 10 19 12 23 12 15 0z"/>
<path d="M4751 4934 c0 -11 3 -14 6 -6 3 7 2 16 -1 19 -3 4 -6 -2 -5 -13z"/>
<path d="M4850 4750 c0 -5 5 -10 11 -10 5 0 7 5 4 10 -3 6 -8 10 -11 10 -2 0
-4 -4 -4 -10z"/>
<path d="M4907 4709 c7 -7 15 -10 18 -7 3 3 -2 9 -12 12 -14 6 -15 5 -6 -5z"/>
<path d="M5030 4658 c21 -11 261 -12 1400 -8 l1375 5 -1375 3 c-756 1 -1386 5
-1400 8 l-25 6 25 -14z"/>
<path d="M4990 4646 c0 -2 7 -7 16 -10 8 -3 12 -2 9 4 -6 10 -25 14 -25 6z"/>
<path d="M7882 4640 c14 -4 32 -11 39 -15 7 -5 10 -4 5 3 -3 5 0 13 6 15 7 3
-7 5 -32 5 -38 0 -41 -1 -18 -8z"/>
<path d="M5133 4633 c9 -2 23 -2 30 0 6 3 -1 5 -18 5 -16 0 -22 -2 -12 -5z"/>
<path d="M5350 4630 c-12 -8 -10 -10 8 -10 13 0 20 4 17 10 -7 12 -6 12 -25 0z"/>
<path d="M5448 4633 c7 -3 16 -2 19 1 4 3 -2 6 -13 5 -11 0 -14 -3 -6 -6z"/>
<path d="M5545 4630 c3 -5 10 -10 16 -10 5 0 9 5 9 10 0 6 -7 10 -16 10 -8 0
-12 -4 -9 -10z"/>
<path d="M5618 4633 c12 -2 32 -2 45 0 12 2 2 4 -23 4 -25 0 -35 -2 -22 -4z"/>
<path d="M6113 4633 c9 -2 25 -2 35 0 9 3 1 5 -18 5 -19 0 -27 -2 -17 -5z"/>
<path d="M6253 4633 c9 -2 25 -2 35 0 9 3 1 5 -18 5 -19 0 -27 -2 -17 -5z"/>
<path d="M6378 4633 c7 -3 16 -2 19 1 4 3 -2 6 -13 5 -11 0 -14 -3 -6 -6z"/>
<path d="M6488 4633 c7 -3 16 -2 19 1 4 3 -2 6 -13 5 -11 0 -14 -3 -6 -6z"/>
<path d="M6698 4633 c12 -2 30 -2 40 0 9 3 -1 5 -23 4 -22 0 -30 -2 -17 -4z"/>
<path d="M6828 4633 c6 -2 18 -2 25 0 6 3 1 5 -13 5 -14 0 -19 -2 -12 -5z"/>
<path d="M6938 4633 c6 -2 18 -2 25 0 6 3 1 5 -13 5 -14 0 -19 -2 -12 -5z"/>
<path d="M7288 4633 c6 -2 18 -2 25 0 6 3 1 5 -13 5 -14 0 -19 -2 -12 -5z"/>
<path d="M7498 4633 c7 -3 16 -2 19 1 4 3 -2 6 -13 5 -11 0 -14 -3 -6 -6z"/>
<path d="M7668 4633 c12 -2 32 -2 45 0 12 2 2 4 -23 4 -25 0 -35 -2 -22 -4z"/>
<path d="M7959 4631 c11 -7 11 -9 0 -14 -8 -3 -1 -6 14 -6 16 -1 26 3 22 8 -3
5 3 12 12 14 10 3 0 5 -22 6 -26 0 -35 -2 -26 -8z"/>
<path d="M4960 4626 c0 -2 7 -7 16 -10 8 -3 12 -2 9 4 -6 10 -25 14 -25 6z"/>
<path d="M5058 4623 c12 -2 30 -2 40 0 9 3 -1 5 -23 4 -22 0 -30 -2 -17 -4z"/>
<path d="M7808 4623 c6 -2 18 -2 25 0 6 3 1 5 -13 5 -14 0 -19 -2 -12 -5z"/>
<path d="M7858 4623 c6 -2 18 -2 25 0 6 3 1 5 -13 5 -14 0 -19 -2 -12 -5z"/>
<path d="M3060 2205 l0 -335 161 0 160 0 -3 48 -3 47 -97 3 -98 3 0 109 0 110
100 0 100 0 0 60 0 60 -100 0 -100 0 0 70 0 70 100 0 100 0 0 45 0 45 -160 0
-160 0 0 -335z"/>
<path d="M4121 2463 c28 -42 78 -114 110 -160 l59 -84 -78 -107 c-43 -59 -99
-137 -125 -174 l-48 -68 73 0 73 1 84 130 83 130 82 -130 81 -131 73 0 73 0
-117 172 c-65 94 -117 177 -117 183 0 10 71 115 180 268 l35 47 -69 0 -68 0
-73 -115 c-41 -63 -75 -115 -77 -115 -1 0 -35 52 -75 115 l-73 115 -69 0 -69
0 52 -77z"/>
<path d="M5320 2205 l0 -335 60 0 60 0 0 110 0 110 63 0 c77 0 130 23 179 78
77 86 77 208 0 294 -59 65 -97 78 -239 78 l-123 0 0 -335z m248 205 c44 -27
67 -80 52 -124 -18 -55 -52 -79 -120 -84 l-60 -4 0 116 0 116 48 0 c29 0 59
-8 80 -20z"/>
<path d="M6440 2205 l0 -335 155 0 155 0 0 50 0 50 -100 0 -100 0 0 110 0 110
100 0 100 0 0 60 0 59 -97 3 -98 3 0 65 0 65 98 3 97 3 0 44 0 45 -155 0 -155
0 0 -335z"/>
<path d="M7450 2205 l0 -335 60 0 60 0 0 111 0 111 61 -4 c54 -4 66 -9 90 -36
26 -29 29 -39 29 -107 l0 -75 61 0 62 0 -5 83 c-5 83 -27 147 -62 176 -14 11
-12 17 14 50 66 81 62 206 -9 284 -60 66 -92 77 -236 77 l-125 0 0 -335z m271
187 c23 -25 29 -42 29 -77 0 -35 -6 -52 -29 -77 -24 -27 -36 -32 -90 -36 l-61
-4 0 117 0 117 61 -4 c54 -4 66 -9 90 -36z"/>
<path d="M8580 2495 l0 -45 85 0 85 0 0 -290 0 -290 55 0 55 0 2 288 3 287 88
3 87 3 0 44 0 45 -230 0 -230 0 0 -45z"/>
<path d="M9861 2513 c-67 -33 -106 -132 -81 -208 11 -34 10 -39 -13 -63 -100
-108 -76 -282 50 -362 118 -75 275 -32 337 92 44 87 32 195 -29 265 -31 36
-31 37 -18 77 26 74 -14 162 -89 202 -36 19 -115 17 -157 -3z m127 -103 c43
-41 16 -112 -43 -112 -58 0 -86 71 -45 112 26 26 60 25 88 0z m44 -227 c24
-21 48 -73 48 -104 0 -65 -67 -129 -134 -129 -127 0 -182 148 -87 234 41 38
130 37 173 -1z"/>
<path d="M5102 1530 c-29 -27 -30 -83 -2 -108 11 -9 35 -22 53 -28 40 -13 48
-47 16 -64 -16 -9 -28 -9 -45 -1 -22 9 -24 8 -24 -13 0 -41 69 -50 114 -15 20
16 26 29 26 58 0 43 -16 61 -73 85 -31 12 -38 20 -35 38 3 20 9 23 41 22 33
-1 38 1 35 20 -4 31 -75 35 -106 6z"/>
<path d="M5534 1531 c-34 -21 -64 -75 -64 -116 0 -41 39 -102 76 -120 83 -39
188 12 194 95 5 65 -1 83 -39 121 -34 35 -44 39 -87 39 -30 0 -61 -7 -80 -19z
m144 -56 c41 -48 25 -116 -34 -141 -29 -12 -39 -12 -68 0 -64 27 -76 97 -26
148 27 26 36 30 68 25 22 -4 46 -17 60 -32z"/>
<path d="M5972 1418 l3 -133 63 -3 c57 -3 62 -1 62 18 0 17 -6 20 -40 20 l-40
0 0 115 0 115 -25 0 -26 0 3 -132z"/>
<path d="M6330 1449 c0 -111 7 -132 51 -154 25 -13 37 -14 65 -5 55 18 64 41
64 157 0 95 -2 103 -19 103 -17 0 -19 -10 -23 -100 -3 -104 -10 -119 -50 -120
-37 0 -48 27 -48 126 0 87 -1 94 -20 94 -19 0 -20 -7 -20 -101z"/>
<path d="M6742 1533 c2 -12 14 -19 35 -21 l32 -3 3 -112 c3 -104 4 -112 23
-112 19 0 20 8 23 112 l3 112 32 3 c21 2 33 9 35 21 3 15 -7 17 -93 17 -86 0
-96 -2 -93 -17z"/>
<path d="M7160 1415 c0 -128 1 -135 20 -135 19 0 20 7 20 135 0 128 -1 135
-20 135 -19 0 -20 -7 -20 -135z"/>
<path d="M7494 1532 c-34 -22 -64 -76 -64 -117 0 -15 10 -45 22 -66 38 -68
125 -89 189 -46 43 29 59 60 59 120 0 40 -5 53 -33 84 -29 31 -41 37 -88 40
-41 3 -61 0 -85 -15z m137 -48 c45 -41 28 -132 -29 -152 -65 -23 -122 19 -122
88 0 53 48 95 98 86 19 -3 43 -13 53 -22z"/>
<path d="M7932 1419 c3 -126 4 -134 23 -134 18 0 20 8 23 78 3 78 9 90 32 62
7 -9 44 -43 81 -76 l69 -61 0 131 c0 124 -1 131 -20 131 -18 0 -20 -7 -20 -80
0 -44 -4 -80 -8 -80 -5 0 -21 14 -38 31 -16 17 -55 54 -87 81 l-58 50 3 -133z"/>
</g>
</svg>
